#!OML:ASF H:\charlestonDancing\Project 1\Capture day 1\Session 1\femaleDancer.ASF
:FULLY-SPECIFIED
:DEGREES
478
root -2.26367 17.5848 4.69914 895.411 -71.8086 -891.161
lowerback 16.8511 -3.53782 3.58176
upperback 1.91835 -4.1398 0.0623185
thorax -7.62147 -2.16618 -0.989526
lowerneck 4.20203 6.67511 10.8168
upperneck -22.1486 8.34559 -7.44202
head -6.60496 3.4706 -4.69559
rclavicle 6.42074e-014 2.3059e-014
rhumerus -47.0933 -15.0179 -55.897
rradius 94.6514
rwrist -43.7176
rhand -9.18323 -33.6186
rfingers 7.12502
rthumb 16.7701 -62.9144
lclavicle 6.42074e-014 2.3059e-014
lhumerus -23.1526 -31.156 79.5007
lradius 49.5137
lwrist 4.90866
lhand -24.2431 17.348
lfingers 7.12502
lthumb 2.24253 47.316
rfemur -22.3463 12.8266 25.8087
rtibia 37.2048
rfoot -18.8085 11.1167
rtoes -4.27031
lfemur -25.5695 -4.90993 -16.3301
ltibia 51.0229
lfoot -10.8406 -10.2638
ltoes -9.06693
479
root -2.2709 17.5891 4.71675 895.559 -71.5641 -891.372
lowerback 16.9645 -3.52024 3.46899
upperback 2.02079 -4.14451 0.00297652
thorax -7.56955 -2.16675 -0.985779
lowerneck 3.99943 6.7654 11.5037
upperneck -22.4724 8.39257 -7.94102
head -6.60881 3.45412 -4.97095
rclavicle 3.30976e-014 2.18663e-014
rhumerus -46.8473 -15.1575 -55.8594
rradius 94.3695
rwrist -43.6836
rhand -8.75989 -33.1898
rfingers 7.12502
rthumb 17.1776 -62.4505
lclavicle 3.30976e-014 2.18663e-014
lhumerus -24.6773 -24.6528 81.4245
lradius 44.3634
lwrist 1.42386
lhand -25.174 18.0521
lfingers 7.12502
lthumb 1.34348 48.0276
rfemur -22.2171 13.0119 25.7034
rtibia 37.0773
rfoot -18.7845 11.2556
rtoes -4.65779
lfemur -25.9386 -5.40842 -16.1912
ltibia 51.6859
lfoot -9.91387 -10.317
ltoes -12.2115
480
root -2.27429 17.5912 4.73283 895.639 -71.2619 -891.447
lowerback 17.1245 -3.4784 3.35601
upperback 2.09553 -4.11393 -0.0492335
thorax -7.57084 -2.15047 -0.979063
lowerneck 4.29894 6.86467 11.2178
upperneck -23.4064 8.53998 -7.62397
head -6.98099 3.46653 -4.88261
rclavicle -1.17979e-013 1.19271e-014
rhumerus -46.6591 -15.2794 -55.8209
rradius 94.1776
rwrist -43.6795
rhand -8.55077 -32.9032
rfingers 7.12502
rthumb 17.3788 -62.1463
lclavicle -1.17979e-013 1.19271e-014
lhumerus -25.9502 -17.1733 82.3229
lradius 39.3003
lwrist -2.44933
lhand -26.3608 18.7279
lfingers 7.12502
lthumb 0.197284 48.7075
rfemur -22.1743 13.3292 25.6409
rtibia 36.9419
rfoot -18.6524 11.3114
rtoes -5.18528
lfemur -26.4324 -5.69878 -15.9844
ltibia 52.3497
lfoot -8.88203 -10.5234
ltoes -13.7479
481
root -2.27555 17.598 4.75053 895.659 -70.9715 -891.389
lowerback 17.3647 -3.42919 3.29227
upperback 2.07982 -4.05477 -0.0757185
thorax -7.71427 -2.12151 -0.971769
lowerneck 4.67091 6.95268 10.8552
upperneck -24.4089 8.66168 -7.35877
head -7.39631 3.47315 -4.80531
rclavicle -4.58199e-014 2.38542e-015
rhumerus -46.6168 -15.3479 -55.7423
rradius 94.0786
rwrist -43.6022
rhand -8.34021 -32.8779
rfingers 7.12502
rthumb 17.5815 -62.103
lclavicle -4.58199e-014 2.38542e-015
lhumerus -27.2445 -9.0552 82.2558
lradius 34.3418
lwrist -6.31671
lhand -27.0873 19.9184
lfingers 7.12502
lthumb -0.504393 49.8976
rfemur -22.2137 13.6336 25.5966
rtibia 36.8177
rfoot -18.5397 11.4659
rtoes -5.01302
lfemur -27.0292 -5.89009 -15.7444
ltibia 53.0385
lfoot -7.81896 -10.6908
ltoes -14.2139
482
root -2.27803 17.6014 4.77176 895.406 -70.6396 -891.039
lowerback 17.6373 -3.39541 3.33621
upperback 2.05313 -3.99044 -0.0521528
thorax -7.89074 -2.09287 -0.970874
lowerneck 5.06564 7.09359 10.5277
upperneck -25.3997 8.82166 -7.30697
head -7.7985 3.51613 -4.80714
rclavicle 8.51792e-014 -1.70955e-014
rhumerus -46.5449 -15.2777 -55.6428
rradius 93.9832
rwrist -43.4734
rhand -7.83554 -32.7802
rfingers 7.12502
rthumb 18.0671 -61.9611
lclavicle 8.51792e-014 -1.70955e-014
lhumerus -28.8708 -0.554318 81.1489
lradius 29.8397
lwrist -10.0679
lhand -27.1306 21.7511
lfingers 7.12502
lthumb -0.546236 51.7301
rfemur -22.2591 13.9021 25.6578
rtibia 36.6936
rfoot -18.5255 11.6465
rtoes -5.05565
lfemur -27.6218 -5.94853 -15.4479
ltibia 53.7614
lfoot -6.7937 -10.7427
ltoes -15.0852
483
root -2.28449 17.6021 4.79561 895.487 -70.2782 -891.122
lowerback 17.8309 -3.32042 3.30294
upperback 2.18878 -3.9062 -0.112591
thorax -7.84719 -2.05406 -1.03206
lowerneck 5.05638 7.15573 10.7314
upperneck -26.1127 8.76001 -7.84308
head -7.99558 3.47206 -5.04613
rclavicle -5.46658e-014 7.95139e-015
rhumerus -46.356 -15.359 -55.558
rradius 93.884
rwrist -43.4876
rhand -7.19392 -32.4735
rfingers 7.12502
rthumb 18.6843 -61.5961
lclavicle -5.46658e-014 7.95139e-015
lhumerus -30.9407 7.13515 79.1919
lradius 26.0262
lwrist -13.1562
lhand -27.9036 22.7854
lfingers 7.12502
lthumb -1.29284 52.7612
rfemur -22.2174 14.1093 25.5727
rtibia 36.5832
rfoot -18.5229 11.8811
rtoes -4.98843
lfemur -28.0655 -5.93606 -15.3678
ltibia 54.4905
lfoot -5.83967 -10.7298
ltoes -15.1856
484
root -2.28571 17.6044 4.82211 895.715 -69.8743 -891.41
lowerback 18.0681 -3.20418 3.24176
upperback 2.41328 -3.78342 -0.236105
thorax -7.73122 -1.9977 -1.15577
lowerneck 4.9256 7.13198 11.1229
upperneck -26.8186 8.51729 -8.62727
head -8.16279 3.34592 -5.38654
rclavicle 2.98177e-015 3.97569e-015
rhumerus -46.1227 -15.6452 -55.4977
rradius 93.766
rwrist -43.6836
rhand -6.73718 -32.1032
rfingers 7.12502
rthumb 19.1236 -61.183
lclavicle 2.98177e-015 3.97569e-015
lhumerus -33.4594 13.3109 76.7409
lradius 22.8411
lwrist -15.0799
lhand -28.7537 23.4261
lfingers 7.12502
lthumb -2.11382 53.3954
rfemur -22.1774 14.3035 25.403
rtibia 36.5146
rfoot -18.4264 12.3203
rtoes -3.78788
lfemur -28.4469 -5.82802 -15.3783
ltibia 55.2142
lfoot -4.99085 -10.6946
ltoes -14.3585
485
root -2.27512 17.5996 4.85047 895.297 -69.5245 -890.958
lowerback 18.3913 -3.17039 3.38635
upperback 2.64974 -3.72153 -0.275242
thorax -7.65827 -1.9763 -1.28586
lowerneck 4.99152 7.20202 11.1379
upperneck -27.8789 8.40644 -9.15797
head -8.51097 3.27257 -5.62049
rclavicle 3.77691e-015 -2.82274e-014
rhumerus -45.7538 -15.8837 -55.5124
rradius 93.664
rwrist -43.9538
rhand -6.31191 -31.8142
rfingers 7.12502
rthumb 19.5325 -60.853
lclavicle 3.77691e-015 -2.82274e-014
lhumerus -36.3887 18.12 74.0293
lradius 20.303
lwrist -15.854
lhand -27.7543 24.7055
lfingers 7.12502
lthumb -1.14861 54.6821
rfemur -22.2638 14.4922 25.4874
rtibia 36.4987
rfoot -18.2545 12.7502
rtoes -2.49729
lfemur -28.9479 -5.60566 -15.107
ltibia 55.9175
lfoot -4.30573 -10.7647
ltoes -13.5595
486
root -2.25598 17.5865 4.87956 894.587 -69.1813 -890.225
lowerback 18.8775 -3.17667 3.52586
upperback 2.95249 -3.70906 -0.252178
thorax -7.59808 -1.97942 -1.32795
lowerneck 4.92447 7.36121 11.0564
upperneck -29.0288 8.35823 -9.70302
head -8.8674 3.22842 -5.84902
rclavicle -2.84262e-014 -1.35174e-014
rhumerus -45.1795 -16.0847 -55.6297
rradius 93.6203
rwrist -44.0784
rhand -5.83746 -31.6067
rfingers 7.12502
rthumb 19.9886 -60.5986
lclavicle -2.84262e-014 -1.35174e-014
lhumerus -39.4459 21.3969 71.4676
lradius 18.3085
lwrist -15.7227
lhand -24.9443 25.356
lfingers 7.12502
lthumb 1.56534 55.33
rfemur -22.3786 14.7202 25.7127
rtibia 36.5369
rfoot -18.0957 13.014
rtoes -2.02667
lfemur -29.4241 -5.24032 -14.7405
ltibia 56.556
lfoot -4.04688 -10.9941
ltoes -14.8515
487
root -2.23249 17.5732 4.90997 894.132 -68.7826 -889.867
lowerback 19.5056 -3.0848 3.49212
upperback 3.24515 -3.59864 -0.217933
thorax -7.6068 -1.93235 -1.27887
lowerneck 5.50585 7.47573 10.4924
upperneck -30.7758 8.30746 -9.88216
head -9.61997 3.17114 -5.95092
rclavicle 7.07673e-014 -4.77083e-015
rhumerus -44.7203 -16.3108 -55.5666
rradius 93.6065
rwrist -44.0613
rhand -5.54167 -31.358
rfingers 7.12502
rthumb 20.2729 -60.32
lclavicle 7.07673e-014 -4.77083e-015
lhumerus -42.6536 23.5803 68.9702
lradius 16.6409
lwrist -16.4968
lhand -20.9583 24.0867
lfingers 7.12502
lthumb 5.41462 53.9975
rfemur -22.4417 15.0037 25.8403
rtibia 36.6484
rfoot -17.9691 13.2349
rtoes -1.6019
lfemur -29.7078 -4.74195 -14.5469
ltibia 57.0852
lfoot -4.40921 -11.2675
ltoes -17.086
488
root -2.20902 17.5601 4.94089 893.945 -68.438 -889.813
lowerback 20.0936 -2.90031 3.42655
upperback 3.39075 -3.36427 -0.175577
thorax -7.74403 -1.82402 -1.23522
lowerneck 6.78977 7.31332 10.2504
upperneck -32.6484 7.87262 -10.4885
head -10.587 2.96243 -6.29937
rclavicle -3.77691e-015 -1.90833e-014
rhumerus -44.7399 -16.4595 -55.0661
rradius 93.6456
rwrist -44.1554
rhand -5.37281 -31.1225
rfingers 7.12502
rthumb 20.4352 -60.0672
lclavicle -3.77691e-015 -1.90833e-014
lhumerus -46.3992 25.6508 65.6557
lradius 15.0863
lwrist -20.3854
lhand -15.6148 20.908
lfingers 7.12502
lthumb 10.5718 50.6221
rfemur -22.5353 15.2615 25.8419
rtibia 36.8642
rfoot -17.9065 13.3891
rtoes -1.07491
lfemur -29.8577 -4.17315 -14.5364
ltibia 57.486
lfoot -5.70933 -11.3985
ltoes -18.2727
489
root -2.18478 17.5446 4.97407 893.859 -68.147 -889.779
lowerback 20.7206 -2.83766 3.30227
upperback 3.70748 -3.32459 -0.223062
thorax -7.72592 -1.81134 -1.20762
lowerneck 7.0441 7.39219 10.2581
upperneck -34.1014 7.66625 -11.1005
head -11.1816 2.82607 -6.62908
rclavicle 3.37934e-014 -1.74931e-014
rhumerus -44.1683 -16.7224 -55.0332
rradius 93.6099
rwrist -44.3802
rhand -4.84706 -30.7886
rfingers 7.12502
rthumb 20.9404 -59.6783
lclavicle 3.37934e-014 -1.74931e-014
lhumerus -50.1033 28.4166 60.9985
lradius 13.5768
lwrist -27.1841
lhand -9.45643 16.4134
lfingers 7.12502
lthumb 16.507 45.7313
rfemur -22.7691 15.4243 25.8005
rtibia 37.1486
rfoot -17.8903 13.5522
rtoes -0.962709
lfemur -30.0309 -3.53266 -14.6008
ltibia 57.785
lfoot -8.16495 -11.077
ltoes -19.7231
